<?xml version="1.0" standalone="no"?><!DOCTYPE svg PUBLIC "-//W3C//DTD SVG 1.1//EN" "http://www.w3.org/Graphics/SVG/1.1/DTD/svg11.dtd"><svg t="1731651691576" class="icon" viewBox="0 0 1024 1024" version="1.1" xmlns="http://www.w3.org/2000/svg" p-id="5365" xmlns:xlink="http://www.w3.org/1999/xlink" width="200" height="200"><path d="M40.96 161.28s273.92 259.584 245.248 605.184c0 0 259.584 0 331.776 216.064 0 0 72.192-648.704-259.584-908.288 0 0 144.384 288.256 100.864 489.984-0.512 1.024-72.192-157.696-418.304-402.944zM977.92 276.48s-155.648 65.024-196.096 280.576c-4.096 20.48-5.12 41.984-4.096 62.464 2.048 56.32 3.584 188.416-30.208 233.472 0 0 144.384-72.192 115.2-288.256 0 0.512-14.336-115.2 115.2-288.256zM675.328 521.728S560.128 276.48 834.048 46.08c0 0-100.864 201.728-86.528 273.92 0 0 28.672 72.192-72.192 201.728z" p-id="5366" fill="#e3b0c9"></path></svg>